<svg preserveAspectRatio="none" width="100%" height="100%" overflow="visible" style="display: block;" viewBox="0 0 54.0181 54.0181" fill="none" xmlns="http://www.w3.org/2000/svg">
<g id="Group">
<path id="Vector" d="M27.009 53.3135C41.5366 53.3135 53.3135 41.5366 53.3135 27.009C53.3135 12.4815 41.5366 0.704583 27.009 0.704583C12.4815 0.704583 0.704583 12.4815 0.704583 27.009C0.704583 41.5366 12.4815 53.3135 27.009 53.3135Z" fill="var(--fill-0, #FFC115)" stroke="var(--stroke-0, #5A4020)" stroke-width="1.40917"/>
<path id="Vector_2" opacity="0.7" d="M27.009 42.0401C35.3105 42.0401 42.0402 35.3105 42.0402 27.009C42.0402 18.7076 35.3105 11.9779 27.009 11.9779C18.7076 11.9779 11.9779 18.7076 11.9779 27.009C11.9779 35.3105 18.7076 42.0401 27.009 42.0401Z" fill="var(--fill-0, #FFC115)" stroke="var(--stroke-0, #3A2810)" stroke-width="0.939444" stroke-dasharray="2.82 2.82"/>
<path id="Vector_3" opacity="0.5" d="M27.009 35.464C31.6786 35.464 35.464 31.6786 35.464 27.009C35.464 22.3395 31.6786 18.554 27.009 18.554C22.3395 18.554 18.554 22.3395 18.554 27.009C18.554 31.6786 22.3395 35.464 27.009 35.464Z" fill="var(--fill-0, #FFC115)" stroke="var(--stroke-0, #3A2810)" stroke-width="0.939444"/>
</g>
</svg>
